<svg width="183" height="230" viewBox="0 0 183 230" fill="none" xmlns="http://www.w3.org/2000/svg">
<g clip-path="url(#clip0_288_867)">
<path d="M166.337 23.9771C169.016 26.1076 171.241 28.7523 172.88 31.7554C174.519 34.7584 175.54 38.059 175.883 41.4624C175.933 41.9691 176.174 42.4379 176.556 42.7742C176.939 43.1105 177.435 43.2894 177.945 43.2747L181.041 43.1841C181.317 43.1762 181.589 43.1117 181.839 42.9946C182.09 42.8775 182.314 42.7103 182.497 42.5033C182.68 42.2963 182.818 42.054 182.904 41.7913C182.989 41.5286 183.02 41.2511 182.994 40.9761C182.199 32.5825 178.201 24.8165 171.828 19.2885C165.456 13.7606 157.198 10.8947 148.767 11.2853C148.491 11.298 148.22 11.3673 147.972 11.4887C147.724 11.6101 147.503 11.7811 147.323 11.9911C147.143 12.2012 147.009 12.4458 146.927 12.7098C146.846 12.9739 146.82 13.2518 146.85 13.5264L147.195 16.6012C147.251 17.1054 147.495 17.5701 147.879 17.9017C148.263 18.2334 148.759 18.4076 149.266 18.3893C155.445 18.1342 161.508 20.1187 166.337 23.9771Z" fill="#3A8243"/>
<path d="M163.867 27.0695C159.125 23.2772 153.189 21.2905 147.117 21.4635C146.838 21.4722 146.564 21.5385 146.312 21.6582C146.061 21.7779 145.837 21.9484 145.654 22.159C145.472 22.3696 145.335 22.6157 145.253 22.8817C145.17 23.1478 145.144 23.428 145.175 23.7047L145.432 25.9972C145.488 26.4953 145.728 26.9547 146.105 27.2854C146.482 27.6162 146.969 27.7944 147.47 27.7853C152.258 27.701 156.908 29.3888 160.524 32.5238C164.141 35.6588 166.469 40.0194 167.06 44.7662C167.119 45.2658 167.363 45.7252 167.744 46.0543C168.125 46.3834 168.615 46.5585 169.119 46.5452L171.426 46.4788C171.704 46.4716 171.978 46.4069 172.23 46.2888C172.481 46.1707 172.706 46.0018 172.889 45.7926C173.073 45.5835 173.21 45.3387 173.294 45.0736C173.378 44.8086 173.406 44.5291 173.376 44.2527C173 40.9046 171.966 37.6635 170.335 34.715C168.703 31.7664 166.505 29.1683 163.867 27.0695Z" fill="#3A8243"/>
<path d="M154.234 39.1259C157.02 41.3437 158.871 44.5259 159.419 48.0423C159.49 48.5339 159.739 48.9826 160.118 49.3037C160.497 49.6248 160.981 49.796 161.478 49.7851L162.594 49.7518C162.88 49.7431 163.161 49.6739 163.418 49.5487C163.675 49.4236 163.903 49.2454 164.086 49.0259C164.269 48.8064 164.404 48.5506 164.481 48.2753C164.558 48.0001 164.575 47.7117 164.532 47.4291C163.856 42.8356 161.552 38.6372 158.038 35.5983C154.524 32.5593 150.035 30.8818 145.387 30.8711C145.105 30.8742 144.828 30.9365 144.572 31.054C144.316 31.1714 144.087 31.3413 143.901 31.5527C143.715 31.7641 143.576 32.0122 143.492 32.2809C143.409 32.5496 143.383 32.8328 143.416 33.1123L143.54 34.2238C143.599 34.7169 143.837 35.1713 144.208 35.5013C144.58 35.8313 145.059 36.014 145.556 36.0149C148.715 36.0583 151.769 37.1531 154.234 39.1259Z" fill="#3A8243"/>
<path d="M16.6658 23.9771C13.9869 26.1076 11.7622 28.7523 10.1229 31.7554C8.48349 34.7584 7.46262 38.059 7.12046 41.4624C7.07016 41.9691 6.82938 42.4379 6.4467 42.7742C6.06401 43.1105 5.56789 43.2894 5.0584 43.2747L1.96229 43.1841C1.68587 43.1762 1.41402 43.1117 1.16357 42.9946C0.913116 42.8775 0.689407 42.7103 0.506292 42.5033C0.323178 42.2963 0.184561 42.054 0.0990348 41.7913C0.0135084 41.5286 -0.0171118 41.2511 0.00907957 40.9761C0.803992 32.5825 4.80222 24.8165 11.1747 19.2885C17.5471 13.7606 25.8049 10.8947 34.2356 11.2853C34.5119 11.298 34.7826 11.3673 35.031 11.4887C35.2794 11.6101 35.5003 11.7811 35.6799 11.9911C35.8596 12.2012 35.9942 12.4458 36.0755 12.7098C36.1568 12.9739 36.183 13.2518 36.1525 13.5264L35.8078 16.5952C35.7524 17.0994 35.5081 17.564 35.1239 17.8957C34.7397 18.2274 34.2442 18.4016 33.7367 18.3833C27.5573 18.1298 21.4944 20.1165 16.6658 23.9771Z" fill="#3A8243"/>
<path d="M19.136 27.0695C23.8782 23.2772 29.8144 21.2905 35.8864 21.4635C36.165 21.4722 36.4388 21.5385 36.6906 21.6582C36.9423 21.7779 37.1664 21.9484 37.3488 22.159C37.5312 22.3696 37.6679 22.6157 37.7503 22.8817C37.8327 23.1478 37.859 23.428 37.8275 23.7047L37.5705 25.9972C37.5148 26.4953 37.2751 26.9547 36.8981 27.2854C36.5212 27.6162 36.0343 27.7944 35.5326 27.7853C30.745 27.701 26.0954 29.3888 22.4788 32.5238C18.8622 35.6588 16.5343 40.0194 15.9431 44.7662C15.8837 45.2658 15.6396 45.7252 15.2587 46.0543C14.8778 46.3834 14.3875 46.5585 13.8841 46.5452L11.5771 46.4788C11.299 46.4716 11.0253 46.4069 10.7735 46.2888C10.5216 46.1707 10.297 46.0018 10.1137 45.7926C9.93048 45.5835 9.79262 45.3387 9.70883 45.0736C9.62505 44.8086 9.59715 44.5291 9.6269 44.2527C10.003 40.9046 11.0365 37.6635 12.6682 34.715C14.2999 31.7664 16.4978 29.1683 19.136 27.0695Z" fill="#3A8243"/>
<path d="M28.7691 39.1259C25.9829 41.3437 24.1323 44.5259 23.5837 48.0423C23.5129 48.5339 23.2643 48.9826 22.885 49.3037C22.5056 49.6248 22.0217 49.796 21.5246 49.7851L20.409 49.7518C20.123 49.7431 19.8422 49.6739 19.585 49.5487C19.3278 49.4236 19.1002 49.2454 18.917 49.0259C18.7338 48.8064 18.5994 48.5506 18.5225 48.2753C18.4456 48.0001 18.428 47.7117 18.4709 47.4291C19.1468 42.8356 21.4514 38.6372 24.9652 35.5983C28.479 32.5593 32.9683 30.8818 37.6159 30.8711C37.8976 30.8742 38.1755 30.9365 38.4314 31.054C38.6874 31.1714 38.9158 31.3413 39.1017 31.5527C39.2876 31.7641 39.427 32.0122 39.5106 32.2809C39.5943 32.5496 39.6204 32.8328 39.5873 33.1123L39.4633 34.2238C39.4042 34.7169 39.1665 35.1713 38.7949 35.5013C38.4234 35.8313 37.9438 36.014 37.4466 36.0149C34.2881 36.0583 31.2344 37.1531 28.7691 39.1259Z" fill="#3A8243"/>
<path d="M84.8285 227.634V5.73492C84.8285 4.21289 85.4337 2.75319 86.5111 1.67696C87.5884 0.600718 89.0496 -0.00390625 90.5732 -0.00390625H93.9777C95.5013 -0.00390625 96.9625 0.600718 98.0399 1.67696C99.1172 2.75319 99.7225 4.21289 99.7225 5.73492V227.634C99.7164 230.787 84.8285 230.787 84.8285 227.634Z" fill="#535461"/>
<path d="M134.043 44.7715H49.9852C42.5777 44.7715 36.5728 50.7703 36.5728 58.1701V123.363C36.5728 130.763 42.5777 136.762 49.9852 136.762H134.043C141.45 136.762 147.455 130.763 147.455 123.363V58.1701C147.455 50.7703 141.45 44.7715 134.043 44.7715Z" fill="url(#paint0_linear_288_867)"/>
<path d="M132.852 46.125H51.3398C43.9323 46.125 37.9274 52.1238 37.9274 59.5236V122.013C37.9274 129.413 43.9323 135.412 51.3398 135.412H132.852C140.259 135.412 146.264 129.413 146.264 122.013V59.5236C146.264 52.1238 140.259 46.125 132.852 46.125Z" fill="white"/>
<path d="M97.0859 83.1685C97.4666 83.1693 97.8315 83.3208 98.1006 83.5896C98.3698 83.8585 98.5213 84.223 98.5221 84.6032V96.9357C98.5213 97.3159 98.3698 97.6804 98.1006 97.9493C97.8315 98.2182 97.4666 98.3696 97.0859 98.3704H85.917C85.5363 98.3696 85.1715 98.2182 84.9023 97.9493C84.6332 97.6804 84.4816 97.3159 84.4808 96.9357V84.6032C84.4816 84.223 84.6332 83.8585 84.9023 83.5896C85.1715 83.3208 85.5363 83.1693 85.917 83.1685H97.089M97.089 82.5645H85.917C85.3757 82.5645 84.8566 82.7793 84.4739 83.1616C84.0911 83.544 83.8761 84.0625 83.8761 84.6032V96.9357C83.8761 97.4764 84.0911 97.995 84.4739 98.3773C84.8566 98.7597 85.3757 98.9745 85.917 98.9745H97.089C97.6302 98.9745 98.1494 98.7597 98.5321 98.3773C98.9149 97.995 99.1299 97.4764 99.1299 96.9357V84.6032C99.1299 84.0625 98.9149 83.544 98.5321 83.1616C98.1494 82.7793 97.6302 82.5645 97.089 82.5645Z" fill="#E0E0E0"/>
<path d="M91.5015 87.1152V90.5766" stroke="#3A8243" stroke-width="2" stroke-miterlimit="10" stroke-linecap="round"/>
<path d="M92.9528 88.6307C93.5612 88.955 94.0432 89.4737 94.3215 90.104C94.5998 90.7343 94.6585 91.4397 94.488 92.1072C94.3175 92.7747 93.9278 93.3657 93.3812 93.7858C92.8346 94.2058 92.1627 94.4305 91.4732 94.4239C90.7836 94.4174 90.1162 94.1799 89.5777 93.7495C89.0393 93.3191 88.661 92.7207 88.5033 92.0501C88.3456 91.3794 88.4177 90.6753 88.708 90.0505C88.9983 89.4256 89.4901 88.9161 90.1046 88.6035" stroke="#3A8243" stroke-width="2" stroke-miterlimit="10" stroke-linecap="round"/>
</g>
<defs>
<linearGradient id="paint0_linear_288_867" x1="92.0125" y1="136.765" x2="92.0125" y2="44.7715" gradientUnits="userSpaceOnUse">
<stop stop-color="#808080" stop-opacity="0.25"/>
<stop offset="0.54" stop-color="#808080" stop-opacity="0.12"/>
<stop offset="1" stop-color="#808080" stop-opacity="0.1"/>
</linearGradient>
<clipPath id="clip0_288_867">
<rect width="183" height="230" fill="white"/>
</clipPath>
</defs>
</svg>
