<svg width="183" height="230" viewBox="0 0 183 230" fill="none" xmlns="http://www.w3.org/2000/svg">
<g clip-path="url(#clip0_520_945)">
<g filter="url(#filter0_d_520_945)">
<path d="M166.337 23.9771C169.016 26.1076 171.24 28.7523 172.88 31.7554C174.519 34.7584 175.54 38.059 175.882 41.4624C175.933 41.9691 176.173 42.4379 176.556 42.7742C176.939 43.1105 177.435 43.2894 177.944 43.2747L181.04 43.1841C181.317 43.1762 181.589 43.1117 181.839 42.9946C182.09 42.8775 182.313 42.7103 182.496 42.5033C182.68 42.2963 182.818 42.054 182.904 41.7913C182.989 41.5286 183.02 41.2511 182.994 40.9761C182.199 32.5825 178.201 24.8165 171.828 19.2885C165.456 13.7606 157.198 10.8947 148.767 11.2853C148.491 11.298 148.22 11.3673 147.972 11.4887C147.723 11.6101 147.502 11.7811 147.323 11.9911C147.143 12.2012 147.009 12.4458 146.927 12.7098C146.846 12.9739 146.82 13.2518 146.85 13.5264L147.195 16.6012C147.25 17.1054 147.495 17.5701 147.879 17.9017C148.263 18.2334 148.759 18.4076 149.266 18.3893C155.445 18.1342 161.508 20.1187 166.337 23.9771Z" fill="#3B9D48"/>
</g>
<g filter="url(#filter1_d_520_945)">
<path d="M163.867 27.0695C159.124 23.2772 153.188 21.2905 147.116 21.4635C146.837 21.4722 146.564 21.5385 146.312 21.6582C146.06 21.7779 145.836 21.9484 145.654 22.159C145.471 22.3696 145.335 22.6157 145.252 22.8817C145.17 23.1478 145.144 23.428 145.175 23.7047L145.432 25.9972C145.488 26.4953 145.727 26.9547 146.104 27.2854C146.481 27.6162 146.968 27.7944 147.47 27.7853C152.257 27.701 156.907 29.3888 160.524 32.5238C164.14 35.6588 166.468 40.0194 167.059 44.7662C167.119 45.2658 167.363 45.7252 167.744 46.0543C168.125 46.3834 168.615 46.5585 169.118 46.5452L171.425 46.4788C171.704 46.4716 171.977 46.4069 172.229 46.2888C172.481 46.1707 172.706 46.0018 172.889 45.7926C173.072 45.5835 173.21 45.3387 173.294 45.0736C173.377 44.8086 173.405 44.5291 173.376 44.2527C172.999 40.9046 171.966 37.6635 170.334 34.715C168.703 31.7664 166.505 29.1683 163.867 27.0695Z" fill="#3B9D48"/>
</g>
<g filter="url(#filter2_d_520_945)">
<path d="M154.234 39.1259C157.021 41.3437 158.871 44.5259 159.42 48.0423C159.491 48.5339 159.739 48.9826 160.119 49.3037C160.498 49.6248 160.982 49.796 161.479 49.7851L162.595 49.7518C162.881 49.7431 163.161 49.6739 163.419 49.5487C163.676 49.4236 163.903 49.2454 164.087 49.0259C164.27 48.8064 164.404 48.5506 164.481 48.2753C164.558 48.0001 164.576 47.7117 164.533 47.4291C163.857 42.8356 161.552 38.6372 158.038 35.5983C154.525 32.5593 150.035 30.8818 145.388 30.8711C145.106 30.8742 144.828 30.9365 144.572 31.054C144.316 31.1714 144.088 31.3413 143.902 31.5527C143.716 31.7641 143.577 32.0122 143.493 32.2809C143.409 32.5496 143.383 32.8328 143.416 33.1123L143.54 34.2238C143.599 34.7169 143.837 35.1713 144.209 35.5013C144.58 35.8313 145.06 36.014 145.557 36.0149C148.715 36.0583 151.769 37.1531 154.234 39.1259Z" fill="#3B9D48"/>
</g>
<g filter="url(#filter3_d_520_945)">
<path d="M16.6658 23.9771C13.9869 26.1076 11.7622 28.7523 10.1229 31.7554C8.48349 34.7584 7.46262 38.059 7.12046 41.4624C7.07016 41.9691 6.82938 42.4379 6.4467 42.7742C6.06401 43.1105 5.56789 43.2894 5.0584 43.2747L1.96229 43.1841C1.68587 43.1762 1.41402 43.1117 1.16357 42.9946C0.913116 42.8775 0.689407 42.7103 0.506292 42.5033C0.323178 42.2963 0.184561 42.054 0.0990348 41.7913C0.0135084 41.5286 -0.0171118 41.2511 0.00907957 40.9761C0.803992 32.5825 4.80222 24.8165 11.1747 19.2885C17.5471 13.7606 25.8049 10.8947 34.2356 11.2853C34.5119 11.298 34.7826 11.3673 35.031 11.4887C35.2794 11.6101 35.5003 11.7811 35.6799 11.9911C35.8596 12.2012 35.9942 12.4458 36.0755 12.7098C36.1568 12.9739 36.183 13.2518 36.1525 13.5264L35.8078 16.5952C35.7524 17.0994 35.5081 17.564 35.1239 17.8957C34.7397 18.2274 34.2442 18.4016 33.7367 18.3833C27.5573 18.1298 21.4944 20.1165 16.6658 23.9771Z" fill="#3B9D48"/>
</g>
<g filter="url(#filter4_d_520_945)">
<path d="M19.1358 27.0695C23.878 23.2772 29.8142 21.2905 35.8863 21.4635C36.1649 21.4722 36.4387 21.5385 36.6904 21.6582C36.9421 21.7779 37.1663 21.9484 37.3487 22.159C37.5311 22.3696 37.6678 22.6157 37.7502 22.8817C37.8326 23.1478 37.8589 23.428 37.8274 23.7047L37.5704 25.9972C37.5147 26.4953 37.275 26.9547 36.898 27.2854C36.5211 27.6162 36.0341 27.7944 35.5325 27.7853C30.7449 27.701 26.0953 29.3888 22.4787 32.5238C18.8621 35.6588 16.5341 40.0194 15.943 44.7662C15.8836 45.2658 15.6395 45.7252 15.2586 46.0543C14.8777 46.3834 14.3874 46.5585 13.8839 46.5452L11.577 46.4788C11.2988 46.4716 11.0252 46.4069 10.7733 46.2888C10.5215 46.1707 10.2968 46.0018 10.1136 45.7926C9.93036 45.5835 9.7925 45.3387 9.70871 45.0736C9.62492 44.8086 9.59703 44.5291 9.62678 44.2527C10.0029 40.9046 11.0364 37.6635 12.6681 34.715C14.2998 31.7664 16.4977 29.1683 19.1358 27.0695Z" fill="#3B9D48"/>
</g>
<g filter="url(#filter5_d_520_945)">
<path d="M28.7693 39.1259C25.9832 41.3437 24.1325 44.5259 23.5839 48.0423C23.5131 48.5339 23.2646 48.9826 22.8852 49.3037C22.5059 49.6248 22.022 49.796 21.5249 49.7851L20.4092 49.7518C20.1233 49.7431 19.8424 49.6739 19.5853 49.5487C19.3281 49.4236 19.1004 49.2454 18.9172 49.0259C18.7341 48.8064 18.5996 48.5506 18.5227 48.2753C18.4458 48.0001 18.4282 47.7117 18.4711 47.4291C19.1471 42.8356 21.4517 38.6372 24.9654 35.5983C28.4792 32.5593 32.9685 30.8818 37.6162 30.8711C37.8979 30.8742 38.1757 30.9365 38.4317 31.054C38.6877 31.1714 38.916 31.3413 39.102 31.5527C39.2879 31.7641 39.4272 32.0122 39.5109 32.2809C39.5945 32.5496 39.6206 32.8328 39.5875 33.1123L39.4636 34.2238C39.4045 34.7169 39.1667 35.1713 38.7952 35.5013C38.4236 35.8313 37.944 36.014 37.4469 36.0149C34.2884 36.0583 31.2347 37.1531 28.7693 39.1259Z" fill="#3B9D48"/>
</g>
<g filter="url(#filter6_d_520_945)">
<path d="M84.8281 227.634V5.73492C84.8281 4.21289 85.4334 2.75319 86.5107 1.67696C87.5881 0.600718 89.0493 -0.00390625 90.5729 -0.00390625H93.9774C95.501 -0.00390625 96.9622 0.600718 98.0395 1.67696C99.1168 2.75319 99.7221 4.21289 99.7221 5.73492V227.634C99.7161 230.787 84.8281 230.787 84.8281 227.634Z" fill="#535461"/>
</g>
<path d="M134.043 44.7715H49.9857C42.5782 44.7715 36.5732 50.7703 36.5732 58.1701V123.363C36.5732 130.763 42.5782 136.762 49.9857 136.762H134.043C141.451 136.762 147.456 130.763 147.456 123.363V58.1701C147.456 50.7703 141.451 44.7715 134.043 44.7715Z" fill="url(#paint0_linear_520_945)"/>
<g filter="url(#filter7_d_520_945)">
<path d="M132.852 46.125H51.3402C43.9327 46.125 37.9277 52.1238 37.9277 59.5236V122.013C37.9277 129.413 43.9327 135.412 51.3402 135.412H132.852C140.259 135.412 146.264 129.413 146.264 122.013V59.5236C146.264 52.1238 140.259 46.125 132.852 46.125Z" fill="white"/>
</g>
<path d="M97.0858 83.1685C97.4665 83.1693 97.8313 83.3208 98.1005 83.5896C98.3697 83.8585 98.5212 84.223 98.522 84.6032V96.9357C98.5212 97.3159 98.3697 97.6804 98.1005 97.9493C97.8313 98.2182 97.4665 98.3696 97.0858 98.3704H85.9169C85.5362 98.3696 85.1714 98.2182 84.9022 97.9493C84.633 97.6804 84.4815 97.3159 84.4807 96.9357V84.6032C84.4815 84.223 84.633 83.8585 84.9022 83.5896C85.1714 83.3208 85.5362 83.1693 85.9169 83.1685H97.0888M97.0888 82.5645H85.9169C85.3756 82.5645 84.8565 82.7793 84.4737 83.1616C84.091 83.544 83.876 84.0625 83.876 84.6032V96.9357C83.876 97.4764 84.091 97.995 84.4737 98.3773C84.8565 98.7597 85.3756 98.9745 85.9169 98.9745H97.0888C97.6301 98.9745 98.1492 98.7597 98.532 98.3773C98.9147 97.995 99.1297 97.4764 99.1297 96.9357V84.6032C99.1297 84.0625 98.9147 83.544 98.532 83.1616C98.1492 82.7793 97.6301 82.5645 97.0888 82.5645Z" fill="#E0E0E0"/>
<path d="M91.502 87.1152V90.5766" stroke="#3B9D48" stroke-width="2" stroke-miterlimit="10" stroke-linecap="round"/>
<path d="M92.953 88.6307C93.5615 88.955 94.0434 89.4737 94.3218 90.104C94.6001 90.7343 94.6587 91.4397 94.4882 92.1072C94.3177 92.7747 93.928 93.3657 93.3814 93.7858C92.8348 94.2058 92.163 94.4305 91.4734 94.4239C90.7839 94.4174 90.1164 94.1799 89.578 93.7495C89.0395 93.3191 88.6612 92.7207 88.5035 92.0501C88.3458 91.3794 88.4179 90.6753 88.7082 90.0505C88.9986 89.4256 89.4904 88.9161 90.1049 88.6035" stroke="#3B9D48" stroke-width="2" stroke-miterlimit="10" stroke-linecap="round"/>
</g>
<defs>
<filter id="filter0_d_520_945" x="142.838" y="11.25" width="44.165" height="40.0254" filterUnits="userSpaceOnUse" color-interpolation-filters="sRGB">
<feFlood flood-opacity="0" result="BackgroundImageFix"/>
<feColorMatrix in="SourceAlpha" type="matrix" values="0 0 0 0 0 0 0 0 0 0 0 0 0 0 0 0 0 0 127 0" result="hardAlpha"/>
<feOffset dy="4"/>
<feGaussianBlur stdDeviation="2"/>
<feComposite in2="hardAlpha" operator="out"/>
<feColorMatrix type="matrix" values="0 0 0 0 0 0 0 0 0 0 0 0 0 0 0 0 0 0 0.1 0"/>
<feBlend mode="normal" in2="BackgroundImageFix" result="effect1_dropShadow_520_945"/>
<feBlend mode="normal" in="SourceGraphic" in2="effect1_dropShadow_520_945" result="shape"/>
</filter>
<filter id="filter1_d_520_945" x="141.162" y="21.4531" width="36.2246" height="33.0938" filterUnits="userSpaceOnUse" color-interpolation-filters="sRGB">
<feFlood flood-opacity="0" result="BackgroundImageFix"/>
<feColorMatrix in="SourceAlpha" type="matrix" values="0 0 0 0 0 0 0 0 0 0 0 0 0 0 0 0 0 0 127 0" result="hardAlpha"/>
<feOffset dy="4"/>
<feGaussianBlur stdDeviation="2"/>
<feComposite in2="hardAlpha" operator="out"/>
<feColorMatrix type="matrix" values="0 0 0 0 0 0 0 0 0 0 0 0 0 0 0 0 0 0 0.1 0"/>
<feBlend mode="normal" in2="BackgroundImageFix" result="effect1_dropShadow_520_945"/>
<feBlend mode="normal" in="SourceGraphic" in2="effect1_dropShadow_520_945" result="shape"/>
</filter>
<filter id="filter2_d_520_945" x="139.402" y="30.8711" width="29.1533" height="26.9141" filterUnits="userSpaceOnUse" color-interpolation-filters="sRGB">
<feFlood flood-opacity="0" result="BackgroundImageFix"/>
<feColorMatrix in="SourceAlpha" type="matrix" values="0 0 0 0 0 0 0 0 0 0 0 0 0 0 0 0 0 0 127 0" result="hardAlpha"/>
<feOffset dy="4"/>
<feGaussianBlur stdDeviation="2"/>
<feComposite in2="hardAlpha" operator="out"/>
<feColorMatrix type="matrix" values="0 0 0 0 0 0 0 0 0 0 0 0 0 0 0 0 0 0 0.1 0"/>
<feBlend mode="normal" in2="BackgroundImageFix" result="effect1_dropShadow_520_945"/>
<feBlend mode="normal" in="SourceGraphic" in2="effect1_dropShadow_520_945" result="shape"/>
</filter>
<filter id="filter3_d_520_945" x="-4" y="11.25" width="44.165" height="40.0254" filterUnits="userSpaceOnUse" color-interpolation-filters="sRGB">
<feFlood flood-opacity="0" result="BackgroundImageFix"/>
<feColorMatrix in="SourceAlpha" type="matrix" values="0 0 0 0 0 0 0 0 0 0 0 0 0 0 0 0 0 0 127 0" result="hardAlpha"/>
<feOffset dy="4"/>
<feGaussianBlur stdDeviation="2"/>
<feComposite in2="hardAlpha" operator="out"/>
<feColorMatrix type="matrix" values="0 0 0 0 0 0 0 0 0 0 0 0 0 0 0 0 0 0 0.1 0"/>
<feBlend mode="normal" in2="BackgroundImageFix" result="effect1_dropShadow_520_945"/>
<feBlend mode="normal" in="SourceGraphic" in2="effect1_dropShadow_520_945" result="shape"/>
</filter>
<filter id="filter4_d_520_945" x="5.61523" y="21.4531" width="36.2246" height="33.0938" filterUnits="userSpaceOnUse" color-interpolation-filters="sRGB">
<feFlood flood-opacity="0" result="BackgroundImageFix"/>
<feColorMatrix in="SourceAlpha" type="matrix" values="0 0 0 0 0 0 0 0 0 0 0 0 0 0 0 0 0 0 127 0" result="hardAlpha"/>
<feOffset dy="4"/>
<feGaussianBlur stdDeviation="2"/>
<feComposite in2="hardAlpha" operator="out"/>
<feColorMatrix type="matrix" values="0 0 0 0 0 0 0 0 0 0 0 0 0 0 0 0 0 0 0.1 0"/>
<feBlend mode="normal" in2="BackgroundImageFix" result="effect1_dropShadow_520_945"/>
<feBlend mode="normal" in="SourceGraphic" in2="effect1_dropShadow_520_945" result="shape"/>
</filter>
<filter id="filter5_d_520_945" x="14.4482" y="30.8711" width="29.1533" height="26.9141" filterUnits="userSpaceOnUse" color-interpolation-filters="sRGB">
<feFlood flood-opacity="0" result="BackgroundImageFix"/>
<feColorMatrix in="SourceAlpha" type="matrix" values="0 0 0 0 0 0 0 0 0 0 0 0 0 0 0 0 0 0 127 0" result="hardAlpha"/>
<feOffset dy="4"/>
<feGaussianBlur stdDeviation="2"/>
<feComposite in2="hardAlpha" operator="out"/>
<feColorMatrix type="matrix" values="0 0 0 0 0 0 0 0 0 0 0 0 0 0 0 0 0 0 0.1 0"/>
<feBlend mode="normal" in2="BackgroundImageFix" result="effect1_dropShadow_520_945"/>
<feBlend mode="normal" in="SourceGraphic" in2="effect1_dropShadow_520_945" result="shape"/>
</filter>
<filter id="filter6_d_520_945" x="80.8281" y="-0.00390625" width="22.8936" height="238.004" filterUnits="userSpaceOnUse" color-interpolation-filters="sRGB">
<feFlood flood-opacity="0" result="BackgroundImageFix"/>
<feColorMatrix in="SourceAlpha" type="matrix" values="0 0 0 0 0 0 0 0 0 0 0 0 0 0 0 0 0 0 127 0" result="hardAlpha"/>
<feOffset dy="4"/>
<feGaussianBlur stdDeviation="2"/>
<feComposite in2="hardAlpha" operator="out"/>
<feColorMatrix type="matrix" values="0 0 0 0 0 0 0 0 0 0 0 0 0 0 0 0 0 0 0.25 0"/>
<feBlend mode="normal" in2="BackgroundImageFix" result="effect1_dropShadow_520_945"/>
<feBlend mode="normal" in="SourceGraphic" in2="effect1_dropShadow_520_945" result="shape"/>
</filter>
<filter id="filter7_d_520_945" x="33.9277" y="46.125" width="116.337" height="97.2871" filterUnits="userSpaceOnUse" color-interpolation-filters="sRGB">
<feFlood flood-opacity="0" result="BackgroundImageFix"/>
<feColorMatrix in="SourceAlpha" type="matrix" values="0 0 0 0 0 0 0 0 0 0 0 0 0 0 0 0 0 0 127 0" result="hardAlpha"/>
<feOffset dy="4"/>
<feGaussianBlur stdDeviation="2"/>
<feComposite in2="hardAlpha" operator="out"/>
<feColorMatrix type="matrix" values="0 0 0 0 0 0 0 0 0 0 0 0 0 0 0 0 0 0 0.25 0"/>
<feBlend mode="normal" in2="BackgroundImageFix" result="effect1_dropShadow_520_945"/>
<feBlend mode="normal" in="SourceGraphic" in2="effect1_dropShadow_520_945" result="shape"/>
</filter>
<linearGradient id="paint0_linear_520_945" x1="92.013" y1="136.765" x2="92.013" y2="44.7715" gradientUnits="userSpaceOnUse">
<stop stop-color="#808080" stop-opacity="0.25"/>
<stop offset="0.54" stop-color="#808080" stop-opacity="0.12"/>
<stop offset="1" stop-color="#808080" stop-opacity="0.1"/>
</linearGradient>
<clipPath id="clip0_520_945">
<rect width="183" height="230" fill="white"/>
</clipPath>
</defs>
</svg>
