<svg width="342" height="394" viewBox="0 0 342 394" fill="none" xmlns="http://www.w3.org/2000/svg">
<rect width="341.246" height="393.191" rx="12" fill="white"/>
<rect x="14.4375" y="15.6992" width="312.372" height="361.789" rx="12" fill="#206273" fill-opacity="0.7"/>
<g clip-path="url(#clip0_639_1390)">
<path d="M207.186 228.594C205.727 228.594 204.477 228.073 203.436 227.031C202.394 225.99 201.873 224.74 201.873 223.281V202.656C201.873 201.198 202.394 199.948 203.436 198.906C204.477 197.865 205.727 197.344 207.186 197.344H208.123V191.094C208.123 187.656 209.347 184.714 211.795 182.266C214.243 179.818 217.186 178.594 220.623 178.594C224.061 178.594 227.003 179.818 229.451 182.266C231.899 184.714 233.123 187.656 233.123 191.094V197.344H234.061C235.519 197.344 236.769 197.865 237.811 198.906C238.852 199.948 239.373 201.198 239.373 202.656V223.281C239.373 224.74 238.852 225.99 237.811 227.031C236.769 228.073 235.519 228.594 234.061 228.594H207.186ZM214.373 197.344H226.873V191.094C226.873 189.323 226.274 187.839 225.076 186.641C223.878 185.443 222.394 184.844 220.623 184.844C218.852 184.844 217.368 185.443 216.17 186.641C214.972 187.839 214.373 189.323 214.373 191.094V197.344ZM170.623 228.594C167.186 228.594 164.243 227.37 161.795 224.922C159.347 222.474 158.123 219.531 158.123 216.094C158.123 212.656 159.347 209.714 161.795 207.266C164.243 204.818 167.186 203.594 170.623 203.594C174.061 203.594 177.003 204.818 179.451 207.266C181.899 209.714 183.123 212.656 183.123 216.094C183.123 219.531 181.899 222.474 179.451 224.922C177.003 227.37 174.061 228.594 170.623 228.594ZM107.029 169.844L95.9355 158.75C106.04 148.958 117.524 141.484 130.389 136.328C143.253 131.172 156.665 128.594 170.623 128.594C184.581 128.594 197.993 131.172 210.857 136.328C223.722 141.484 235.206 148.958 245.311 158.75L234.842 169.375C234.425 169.167 234.035 168.984 233.67 168.828C233.305 168.672 232.915 168.49 232.498 168.281C224.061 160.469 214.529 154.505 203.904 150.391C193.279 146.276 182.186 144.219 170.623 144.219C158.644 144.219 147.186 146.432 136.248 150.859C125.311 155.286 115.571 161.615 107.029 169.844ZM124.686 187.656L113.748 176.563C121.456 169.167 130.206 163.49 139.998 159.531C149.79 155.573 160.05 153.594 170.779 153.594C178.696 153.594 186.404 154.714 193.904 156.953C201.404 159.193 208.488 162.448 215.154 166.719C212.029 167.24 209.035 168.255 206.17 169.766C203.305 171.276 200.727 173.177 198.436 175.469C194.061 173.49 189.529 171.953 184.842 170.859C180.154 169.766 175.415 169.219 170.623 169.219C161.977 169.219 153.722 170.807 145.857 173.984C137.993 177.161 130.936 181.719 124.686 187.656ZM142.186 205.313L131.248 194.219C136.561 189.219 142.602 185.365 149.373 182.656C156.144 179.948 163.227 178.594 170.623 178.594C174.477 178.594 178.279 178.984 182.029 179.766C185.779 180.547 189.425 181.667 192.967 183.125C191.717 185.521 190.805 188.021 190.232 190.625C189.66 193.229 189.373 195.885 189.373 198.594C186.456 197.031 183.436 195.911 180.311 195.234C177.186 194.557 173.956 194.219 170.623 194.219C165.311 194.219 160.232 195.156 155.389 197.031C150.545 198.906 146.144 201.667 142.186 205.313Z" fill="white"/>
</g>
<path d="M127.79 262.746V266.034H120.926V269.586H126.062V272.778H120.926V279.594H116.822V262.746H127.79ZM134.051 268.434C134.531 267.698 135.131 267.122 135.851 266.706C136.571 266.274 137.371 266.058 138.251 266.058V270.402H137.123C136.099 270.402 135.331 270.626 134.819 271.074C134.307 271.506 134.051 272.274 134.051 273.378V279.594H129.947V266.202H134.051V268.434ZM152.837 272.682C152.837 273.066 152.813 273.466 152.765 273.882H143.477C143.541 274.714 143.805 275.354 144.269 275.802C144.749 276.234 145.333 276.45 146.021 276.45C147.045 276.45 147.757 276.018 148.157 275.154H152.525C152.301 276.034 151.893 276.826 151.301 277.53C150.725 278.234 149.997 278.786 149.117 279.186C148.237 279.586 147.253 279.786 146.165 279.786C144.853 279.786 143.685 279.506 142.661 278.946C141.637 278.386 140.837 277.586 140.261 276.546C139.685 275.506 139.397 274.29 139.397 272.898C139.397 271.506 139.677 270.29 140.237 269.25C140.813 268.21 141.613 267.41 142.637 266.85C143.661 266.29 144.837 266.01 146.165 266.01C147.461 266.01 148.613 266.282 149.621 266.826C150.629 267.37 151.413 268.146 151.973 269.154C152.549 270.162 152.837 271.338 152.837 272.682ZM148.637 271.602C148.637 270.898 148.397 270.338 147.917 269.922C147.437 269.506 146.837 269.298 146.117 269.298C145.429 269.298 144.845 269.498 144.365 269.898C143.901 270.298 143.613 270.866 143.501 271.602H148.637ZM167.626 272.682C167.626 273.066 167.602 273.466 167.554 273.882H158.266C158.33 274.714 158.594 275.354 159.058 275.802C159.538 276.234 160.122 276.45 160.81 276.45C161.834 276.45 162.546 276.018 162.946 275.154H167.314C167.09 276.034 166.682 276.826 166.09 277.53C165.514 278.234 164.786 278.786 163.906 279.186C163.026 279.586 162.042 279.786 160.954 279.786C159.642 279.786 158.474 279.506 157.45 278.946C156.426 278.386 155.626 277.586 155.05 276.546C154.474 275.506 154.186 274.29 154.186 272.898C154.186 271.506 154.466 270.29 155.026 269.25C155.602 268.21 156.402 267.41 157.426 266.85C158.45 266.29 159.626 266.01 160.954 266.01C162.25 266.01 163.402 266.282 164.41 266.826C165.418 267.37 166.202 268.146 166.762 269.154C167.338 270.162 167.626 271.338 167.626 272.682ZM163.426 271.602C163.426 270.898 163.186 270.338 162.706 269.922C162.226 269.506 161.626 269.298 160.906 269.298C160.218 269.298 159.634 269.498 159.154 269.898C158.69 270.298 158.402 270.866 158.29 271.602H163.426ZM198.061 262.746L193.669 279.594H188.701L186.013 268.506L183.229 279.594H178.261L173.989 262.746H178.381L180.805 275.01L183.805 262.746H188.317L191.197 275.01L193.645 262.746H198.061ZM202.183 264.81C201.463 264.81 200.871 264.602 200.407 264.186C199.959 263.754 199.735 263.226 199.735 262.602C199.735 261.962 199.959 261.434 200.407 261.018C200.871 260.586 201.463 260.37 202.183 260.37C202.887 260.37 203.463 260.586 203.911 261.018C204.375 261.434 204.607 261.962 204.607 262.602C204.607 263.226 204.375 263.754 203.911 264.186C203.463 264.602 202.887 264.81 202.183 264.81ZM204.223 266.202V279.594H200.119V266.202H204.223ZM218.165 262.746V266.034H211.301V269.586H216.437V272.778H211.301V279.594H207.197V262.746H218.165ZM222.386 264.81C221.666 264.81 221.074 264.602 220.61 264.186C220.162 263.754 219.938 263.226 219.938 262.602C219.938 261.962 220.162 261.434 220.61 261.018C221.074 260.586 221.666 260.37 222.386 260.37C223.09 260.37 223.666 260.586 224.114 261.018C224.578 261.434 224.81 261.962 224.81 262.602C224.81 263.226 224.578 263.754 224.114 264.186C223.666 264.602 223.09 264.81 222.386 264.81ZM224.426 266.202V279.594H220.322V266.202H224.426Z" fill="white"/>
<defs>
<clipPath id="clip0_639_1390">
<rect width="150" height="150" fill="white" transform="translate(95.623 103.594)"/>
</clipPath>
</defs>
</svg>
